<svg width="30" height="30" viewBox="0 0 30 30" fill="none" xmlns="http://www.w3.org/2000/svg">
<path d="M15 26.25L13.1875 24.625C11.0833 22.7292 9.34375 21.0938 7.96875 19.7188C6.59375 18.3437 5.5 17.1092 4.6875 16.015C3.875 14.9217 3.3075 13.9167 2.985 13C2.66167 12.0833 2.5 11.1458 2.5 10.1875C2.5 8.22917 3.15625 6.59375 4.46875 5.28125C5.78125 3.96875 7.41667 3.3125 9.375 3.3125C10.4583 3.3125 11.4896 3.54167 12.4688 4C13.4479 4.45833 14.2917 5.10417 15 5.9375C15.7083 5.10417 16.5521 4.45833 17.5312 4C18.5104 3.54167 19.5417 3.3125 20.625 3.3125C22.5833 3.3125 24.2187 3.96875 25.5312 5.28125C26.8437 6.59375 27.5 8.22917 27.5 10.1875C27.5 11.1458 27.3388 12.0833 27.0163 13C26.6929 13.9167 26.125 14.9217 25.3125 16.015C24.5 17.1092 23.4063 18.3437 22.0312 19.7188C20.6562 21.0938 18.9167 22.7292 16.8125 24.625L15 26.25Z" fill="#FF2B2B"/>
</svg>
